<mxfile host="Electron" agent="Mozilla/5.0 (Windows NT 10.0; Win64; x64) AppleWebKit/537.36 (KHTML, like Gecko) draw.io/28.1.2 Chrome/138.0.7204.243 Electron/37.4.0 Safari/537.36" version="28.1.2">
  <diagram name="Pagina-1" id="MN7WsSKvXLgIGYer2BLl">
    <mxGraphModel dx="556" dy="389" grid="1" gridSize="10" guides="1" tooltips="1" connect="1" arrows="1" fold="1" page="1" pageScale="1" pageWidth="827" pageHeight="1169" math="1" shadow="0">
      <root>
        <mxCell id="0" />
        <mxCell id="1" parent="0" />
        <mxCell id="ddl-roebjKmBMkPWHnF6-1" value="" style="ellipse;whiteSpace=wrap;html=1;fillColor=none;fontColor=#ffffff;strokeColor=#006EAF;sketch=1;curveFitting=1;jiggle=2;" parent="1" vertex="1">
          <mxGeometry x="270" y="350" width="10" height="10" as="geometry" />
        </mxCell>
        <mxCell id="61cGgM1Lmk8JUmtUeZvV-2" value="" style="curved=1;endArrow=classic;html=1;rounded=0;entryX=-0.117;entryY=0.538;entryDx=0;entryDy=0;sketch=1;curveFitting=1;jiggle=2;entryPerimeter=0;" parent="1" target="ddl-roebjKmBMkPWHnF6-1" edge="1">
          <mxGeometry width="50" height="50" relative="1" as="geometry">
            <mxPoint x="220" y="355" as="sourcePoint" />
            <mxPoint x="260" y="349.67" as="targetPoint" />
            <Array as="points" />
          </mxGeometry>
        </mxCell>
        <mxCell id="61cGgM1Lmk8JUmtUeZvV-3" value="&lt;font&gt;START&lt;/font&gt;" style="text;html=1;align=center;verticalAlign=middle;whiteSpace=wrap;rounded=0;fontFamily=Comic Sans MS;" parent="1" vertex="1">
          <mxGeometry x="210" y="350" width="60" height="30" as="geometry" />
        </mxCell>
        <mxCell id="jqbja9KTDnkAdjI2LqNx-1" value="" style="ellipse;whiteSpace=wrap;html=1;fillColor=none;fontColor=#ffffff;strokeColor=#006EAF;sketch=1;curveFitting=1;jiggle=2;" parent="1" vertex="1">
          <mxGeometry x="310" y="410" width="10" height="10" as="geometry" />
        </mxCell>
        <mxCell id="jqbja9KTDnkAdjI2LqNx-2" value="" style="ellipse;whiteSpace=wrap;html=1;fillColor=none;fontColor=#ffffff;strokeColor=#006EAF;sketch=1;curveFitting=1;jiggle=2;" parent="1" vertex="1">
          <mxGeometry x="330" y="410" width="10" height="10" as="geometry" />
        </mxCell>
        <mxCell id="jqbja9KTDnkAdjI2LqNx-3" value="" style="ellipse;whiteSpace=wrap;html=1;fillColor=none;fontColor=#ffffff;strokeColor=#006EAF;sketch=1;curveFitting=1;jiggle=2;" parent="1" vertex="1">
          <mxGeometry x="320" y="390" width="10" height="10" as="geometry" />
        </mxCell>
        <mxCell id="jqbja9KTDnkAdjI2LqNx-5" value="" style="ellipse;whiteSpace=wrap;html=1;fillColor=#1ba1e2;fontColor=#ffffff;strokeColor=#006EAF;sketch=1;curveFitting=1;jiggle=2;" parent="1" vertex="1">
          <mxGeometry x="392.5" y="360" width="10" height="10" as="geometry" />
        </mxCell>
        <mxCell id="jqbja9KTDnkAdjI2LqNx-6" value="" style="ellipse;whiteSpace=wrap;html=1;fillColor=#1ba1e2;fontColor=#ffffff;strokeColor=#006EAF;sketch=1;curveFitting=1;jiggle=2;" parent="1" vertex="1">
          <mxGeometry x="392.5" y="340" width="10" height="10" as="geometry" />
        </mxCell>
        <mxCell id="jqbja9KTDnkAdjI2LqNx-7" value="" style="rounded=0;whiteSpace=wrap;html=1;fillColor=none;sketch=1;curveFitting=1;jiggle=2;" parent="1" vertex="1">
          <mxGeometry x="210" y="320" width="210" height="120" as="geometry" />
        </mxCell>
        <mxCell id="jqbja9KTDnkAdjI2LqNx-8" value="$$N$$" style="text;html=1;align=center;verticalAlign=middle;resizable=0;points=[];autosize=1;strokeColor=none;fillColor=none;" parent="1" vertex="1">
          <mxGeometry x="285" y="440" width="60" height="30" as="geometry" />
        </mxCell>
        <mxCell id="jqbja9KTDnkAdjI2LqNx-10" value="" style="ellipse;whiteSpace=wrap;html=1;fillColor=none;fontColor=#ffffff;strokeColor=#99004D;sketch=1;curveFitting=1;jiggle=2;" parent="1" vertex="1">
          <mxGeometry x="300" y="380" width="50" height="50" as="geometry" />
        </mxCell>
        <mxCell id="jqbja9KTDnkAdjI2LqNx-11" value="" style="curved=1;endArrow=classic;html=1;rounded=0;entryX=0;entryY=0.5;entryDx=0;entryDy=0;sketch=1;curveFitting=1;jiggle=2;exitX=0.5;exitY=1;exitDx=0;exitDy=0;flowAnimation=0;strokeColor=#FFD966;" parent="1" source="ddl-roebjKmBMkPWHnF6-1" target="jqbja9KTDnkAdjI2LqNx-10" edge="1">
          <mxGeometry width="50" height="50" relative="1" as="geometry">
            <mxPoint x="270" y="400" as="sourcePoint" />
            <mxPoint x="319" y="400" as="targetPoint" />
            <Array as="points">
              <mxPoint x="270" y="400" />
            </Array>
          </mxGeometry>
        </mxCell>
        <mxCell id="jqbja9KTDnkAdjI2LqNx-12" value="" style="curved=1;endArrow=classic;html=1;rounded=0;sketch=1;curveFitting=1;jiggle=2;exitX=1;exitY=0.5;exitDx=0;exitDy=0;entryX=0;entryY=0.5;entryDx=0;entryDy=0;strokeColor=light-dark(#FF6666,#FFD966);" parent="1" source="jqbja9KTDnkAdjI2LqNx-10" target="jqbja9KTDnkAdjI2LqNx-13" edge="1">
          <mxGeometry width="50" height="50" relative="1" as="geometry">
            <mxPoint x="375" y="380" as="sourcePoint" />
            <mxPoint x="350" y="350" as="targetPoint" />
            <Array as="points">
              <mxPoint x="370" y="410" />
              <mxPoint x="360" y="355" />
            </Array>
          </mxGeometry>
        </mxCell>
        <mxCell id="jqbja9KTDnkAdjI2LqNx-13" value="" style="ellipse;whiteSpace=wrap;html=1;fillColor=none;fontColor=#ffffff;strokeColor=#99004D;sketch=1;curveFitting=1;jiggle=2;" parent="1" vertex="1">
          <mxGeometry x="385" y="330" width="25" height="50" as="geometry" />
        </mxCell>
        <mxCell id="jqbja9KTDnkAdjI2LqNx-15" value="" style="curved=1;endArrow=classic;html=1;rounded=0;sketch=1;curveFitting=1;jiggle=2;exitX=0.5;exitY=0;exitDx=0;exitDy=0;entryX=0.5;entryY=0;entryDx=0;entryDy=0;strokeColor=#FFD966;" parent="1" source="jqbja9KTDnkAdjI2LqNx-13" target="jqbja9KTDnkAdjI2LqNx-10" edge="1">
          <mxGeometry width="50" height="50" relative="1" as="geometry">
            <mxPoint x="379" y="325" as="sourcePoint" />
            <mxPoint x="414" y="275" as="targetPoint" />
            <Array as="points">
              <mxPoint x="399" y="330" />
              <mxPoint x="320" y="330" />
            </Array>
          </mxGeometry>
        </mxCell>
        <mxCell id="jqbja9KTDnkAdjI2LqNx-25" value="$$N^{*}$$" style="text;html=1;align=center;verticalAlign=middle;resizable=0;points=[];autosize=1;strokeColor=none;fillColor=none;" parent="1" vertex="1">
          <mxGeometry x="535" y="470" width="80" height="30" as="geometry" />
        </mxCell>
        <mxCell id="jqbja9KTDnkAdjI2LqNx-40" value="" style="ellipse;whiteSpace=wrap;html=1;fillColor=none;fontColor=#ffffff;strokeColor=#006EAF;sketch=1;curveFitting=1;jiggle=2;" parent="1" vertex="1">
          <mxGeometry x="594" y="410" width="10" height="10" as="geometry" />
        </mxCell>
        <mxCell id="jqbja9KTDnkAdjI2LqNx-41" value="" style="ellipse;whiteSpace=wrap;html=1;fillColor=none;fontColor=#ffffff;strokeColor=#006EAF;sketch=1;curveFitting=1;jiggle=2;" parent="1" vertex="1">
          <mxGeometry x="614" y="410" width="10" height="10" as="geometry" />
        </mxCell>
        <mxCell id="jqbja9KTDnkAdjI2LqNx-42" value="" style="ellipse;whiteSpace=wrap;html=1;fillColor=none;fontColor=#ffffff;strokeColor=#006EAF;sketch=1;curveFitting=1;jiggle=2;" parent="1" vertex="1">
          <mxGeometry x="604" y="390" width="10" height="10" as="geometry" />
        </mxCell>
        <mxCell id="jqbja9KTDnkAdjI2LqNx-43" value="" style="ellipse;whiteSpace=wrap;html=1;fillColor=#1ba1e2;fontColor=#ffffff;strokeColor=#006EAF;sketch=1;curveFitting=1;jiggle=2;" parent="1" vertex="1">
          <mxGeometry x="676.5" y="360" width="10" height="10" as="geometry" />
        </mxCell>
        <mxCell id="jqbja9KTDnkAdjI2LqNx-44" value="" style="ellipse;whiteSpace=wrap;html=1;fillColor=#1ba1e2;fontColor=#ffffff;strokeColor=#006EAF;sketch=1;curveFitting=1;jiggle=2;" parent="1" vertex="1">
          <mxGeometry x="676.5" y="340" width="10" height="10" as="geometry" />
        </mxCell>
        <mxCell id="jqbja9KTDnkAdjI2LqNx-46" value="" style="ellipse;whiteSpace=wrap;html=1;fillColor=none;fontColor=#ffffff;strokeColor=#99004D;sketch=1;curveFitting=1;jiggle=2;" parent="1" vertex="1">
          <mxGeometry x="584" y="380" width="50" height="50" as="geometry" />
        </mxCell>
        <mxCell id="jqbja9KTDnkAdjI2LqNx-47" value="" style="curved=1;endArrow=classic;html=1;rounded=0;entryX=0;entryY=0.5;entryDx=0;entryDy=0;sketch=1;curveFitting=1;jiggle=2;exitX=1;exitY=1;exitDx=0;exitDy=0;flowAnimation=0;strokeColor=#FFD966;" parent="1" source="4vy8X6Yie3YPQdQlvo9l-7" target="jqbja9KTDnkAdjI2LqNx-46" edge="1">
          <mxGeometry width="50" height="50" relative="1" as="geometry">
            <mxPoint x="559" y="360" as="sourcePoint" />
            <mxPoint x="603" y="400" as="targetPoint" />
            <Array as="points">
              <mxPoint x="554" y="400" />
            </Array>
          </mxGeometry>
        </mxCell>
        <mxCell id="jqbja9KTDnkAdjI2LqNx-48" value="" style="curved=1;endArrow=classic;html=1;rounded=0;sketch=1;curveFitting=1;jiggle=2;exitX=1;exitY=0.5;exitDx=0;exitDy=0;entryX=0;entryY=0.5;entryDx=0;entryDy=0;strokeColor=light-dark(#FF6666,#FFD966);" parent="1" source="jqbja9KTDnkAdjI2LqNx-46" target="jqbja9KTDnkAdjI2LqNx-49" edge="1">
          <mxGeometry width="50" height="50" relative="1" as="geometry">
            <mxPoint x="659" y="380" as="sourcePoint" />
            <mxPoint x="634" y="350" as="targetPoint" />
            <Array as="points">
              <mxPoint x="654" y="410" />
              <mxPoint x="644" y="355" />
            </Array>
          </mxGeometry>
        </mxCell>
        <mxCell id="jqbja9KTDnkAdjI2LqNx-49" value="" style="ellipse;whiteSpace=wrap;html=1;fillColor=none;fontColor=#ffffff;strokeColor=#99004D;sketch=1;curveFitting=1;jiggle=2;noLabel=0;shadow=0;" parent="1" vertex="1">
          <mxGeometry x="669" y="330" width="25" height="50" as="geometry" />
        </mxCell>
        <mxCell id="jqbja9KTDnkAdjI2LqNx-50" value="" style="curved=1;endArrow=classic;html=1;rounded=0;sketch=1;curveFitting=1;jiggle=2;exitX=0.5;exitY=0;exitDx=0;exitDy=0;entryX=0.5;entryY=0;entryDx=0;entryDy=0;strokeColor=#FFD966;" parent="1" source="jqbja9KTDnkAdjI2LqNx-49" target="jqbja9KTDnkAdjI2LqNx-46" edge="1">
          <mxGeometry width="50" height="50" relative="1" as="geometry">
            <mxPoint x="663" y="325" as="sourcePoint" />
            <mxPoint x="698" y="275" as="targetPoint" />
            <Array as="points">
              <mxPoint x="683" y="330" />
              <mxPoint x="604" y="330" />
            </Array>
          </mxGeometry>
        </mxCell>
        <mxCell id="jqbja9KTDnkAdjI2LqNx-52" value="" style="curved=1;endArrow=classic;html=1;rounded=0;entryX=0;entryY=0.5;entryDx=0;entryDy=0;sketch=1;curveFitting=1;jiggle=2;" parent="1" edge="1">
          <mxGeometry width="50" height="50" relative="1" as="geometry">
            <mxPoint x="450" y="355" as="sourcePoint" />
            <mxPoint x="500.0000000000022" y="354.7400000000001" as="targetPoint" />
            <Array as="points" />
          </mxGeometry>
        </mxCell>
        <mxCell id="jqbja9KTDnkAdjI2LqNx-53" value="&lt;font&gt;START&lt;/font&gt;" style="text;html=1;align=center;verticalAlign=middle;whiteSpace=wrap;rounded=0;fontFamily=Comic Sans MS;" parent="1" vertex="1">
          <mxGeometry x="440" y="350" width="60" height="30" as="geometry" />
        </mxCell>
        <mxCell id="4vy8X6Yie3YPQdQlvo9l-2" value="" style="ellipse;whiteSpace=wrap;html=1;fillColor=#1ba1e2;fontColor=#ffffff;strokeColor=#006EAF;sketch=1;curveFitting=1;jiggle=2;" parent="1" vertex="1">
          <mxGeometry x="500" y="350" width="10" height="10" as="geometry" />
        </mxCell>
        <mxCell id="4vy8X6Yie3YPQdQlvo9l-3" value="" style="curved=1;endArrow=classic;html=1;rounded=0;sketch=1;curveFitting=1;jiggle=2;entryX=0;entryY=1;entryDx=0;entryDy=0;strokeColor=light-dark(#97D077,#97D077);exitX=0.5;exitY=1;exitDx=0;exitDy=0;" parent="1" source="jqbja9KTDnkAdjI2LqNx-43" target="4vy8X6Yie3YPQdQlvo9l-7" edge="1">
          <mxGeometry width="50" height="50" relative="1" as="geometry">
            <mxPoint x="680" y="400" as="sourcePoint" />
            <mxPoint x="555.4644660940672" y="358.53553390593265" as="targetPoint" />
            <Array as="points">
              <mxPoint x="680" y="460" />
              <mxPoint x="510" y="450" />
            </Array>
          </mxGeometry>
        </mxCell>
        <mxCell id="4vy8X6Yie3YPQdQlvo9l-4" value="" style="curved=1;endArrow=classic;html=1;rounded=0;sketch=1;curveFitting=1;jiggle=2;strokeColor=light-dark(#97D077,#97D077);entryX=0.5;entryY=0;entryDx=0;entryDy=0;exitX=0.5;exitY=0;exitDx=0;exitDy=0;" parent="1" source="jqbja9KTDnkAdjI2LqNx-44" target="4vy8X6Yie3YPQdQlvo9l-7" edge="1">
          <mxGeometry width="50" height="50" relative="1" as="geometry">
            <mxPoint x="680" y="340" as="sourcePoint" />
            <mxPoint x="559" y="350" as="targetPoint" />
            <Array as="points">
              <mxPoint x="678" y="300" />
              <mxPoint x="559" y="300" />
            </Array>
          </mxGeometry>
        </mxCell>
        <mxCell id="4vy8X6Yie3YPQdQlvo9l-5" value="" style="curved=1;endArrow=classic;html=1;rounded=0;entryX=0;entryY=0.5;entryDx=0;entryDy=0;sketch=1;curveFitting=1;jiggle=2;exitX=1;exitY=0.5;exitDx=0;exitDy=0;strokeColor=light-dark(#97D077,#97D077);" parent="1" source="4vy8X6Yie3YPQdQlvo9l-2" target="4vy8X6Yie3YPQdQlvo9l-7" edge="1">
          <mxGeometry width="50" height="50" relative="1" as="geometry">
            <mxPoint x="440" y="380" as="sourcePoint" />
            <mxPoint x="554" y="355" as="targetPoint" />
            <Array as="points" />
          </mxGeometry>
        </mxCell>
        <mxCell id="4vy8X6Yie3YPQdQlvo9l-7" value="" style="ellipse;whiteSpace=wrap;html=1;fillColor=none;fontColor=#ffffff;strokeColor=#006EAF;sketch=1;curveFitting=1;jiggle=2;" parent="1" vertex="1">
          <mxGeometry x="550" y="350" width="10" height="10" as="geometry" />
        </mxCell>
        <mxCell id="4vy8X6Yie3YPQdQlvo9l-9" value="" style="rounded=0;whiteSpace=wrap;html=1;fillColor=none;sketch=1;curveFitting=1;jiggle=2;" parent="1" vertex="1">
          <mxGeometry x="440" y="290" width="270" height="180" as="geometry" />
        </mxCell>
        <mxCell id="4vy8X6Yie3YPQdQlvo9l-10" value="&lt;font style=&quot;color: rgb(151, 208, 119);&quot;&gt;$$\mathcal{E}$$&lt;/font&gt;" style="text;html=1;align=center;verticalAlign=middle;resizable=0;points=[];autosize=1;strokeColor=none;fillColor=none;gradientColor=none;" parent="1" vertex="1">
          <mxGeometry x="620" y="420" width="110" height="30" as="geometry" />
        </mxCell>
        <mxCell id="4vy8X6Yie3YPQdQlvo9l-12" value="&lt;font style=&quot;color: rgb(151, 208, 119);&quot;&gt;$$\mathcal{E}$$&lt;/font&gt;" style="text;html=1;align=center;verticalAlign=middle;resizable=0;points=[];autosize=1;strokeColor=none;fillColor=none;gradientColor=none;" parent="1" vertex="1">
          <mxGeometry x="620" y="290" width="110" height="30" as="geometry" />
        </mxCell>
        <mxCell id="FBAvpaE2n-gx7QAej_Ah-1" value="$$q_{0}&#39;$$" style="text;html=1;align=center;verticalAlign=middle;resizable=0;points=[];autosize=1;strokeColor=none;fillColor=none;" vertex="1" parent="1">
          <mxGeometry x="470" y="320" width="80" height="30" as="geometry" />
        </mxCell>
        <mxCell id="FBAvpaE2n-gx7QAej_Ah-2" value="$$q_{0}$$" style="text;html=1;align=center;verticalAlign=middle;resizable=0;points=[];autosize=1;strokeColor=none;fillColor=none;" vertex="1" parent="1">
          <mxGeometry x="530" y="330" width="80" height="30" as="geometry" />
        </mxCell>
      </root>
    </mxGraphModel>
  </diagram>
</mxfile>
